<svg width="122" height="122" viewBox="0 0 122 122" fill="none" xmlns="http://www.w3.org/2000/svg">
<path opacity="0.1" d="M61 30.5671C77.8138 30.5671 91.4323 44.1855 91.4323 60.9994H121.865C121.865 27.3869 94.6125 0.134766 61 0.134766V30.5671ZM30.5677 60.9994C30.5677 44.1855 44.1861 30.5671 61 30.5671V0.134766C27.3875 0.134766 0.135376 27.3869 0.135376 60.9994H30.5677ZM61 91.4317C44.1861 91.4317 30.5677 77.8132 30.5677 60.9994H0.135376C0.135376 94.6119 27.3875 121.864 61 121.864V91.4317ZM91.4323 60.9994C91.4323 77.8132 77.8138 91.4317 61 91.4317V121.864C94.6125 121.864 121.865 94.6119 121.865 60.9994H91.4323Z" fill="#FF4A4A"/>
<path d="M61.0006 106.648C86.2116 106.648 106.649 86.211 106.649 61C106.649 35.7891 86.2116 15.3516 61.0006 15.3516C35.7897 15.3516 15.3522 35.7891 15.3522 61C15.3522 86.211 35.7897 106.648 61.0006 106.648Z" fill="#FF4A4A"/>
<path fill-rule="evenodd" clip-rule="evenodd" d="M61.0047 38.5918C62.9087 38.5918 64.4522 40.1353 64.4522 42.0393V65.0224C64.4522 66.9264 62.9087 68.4699 61.0047 68.4699C59.1007 68.4699 57.5573 66.9264 57.5573 65.0224V42.0393C57.5573 40.1353 59.1007 38.5918 61.0047 38.5918Z" fill="#F5F5F5"/>
<path fill-rule="evenodd" clip-rule="evenodd" d="M56.3834 78.8134C56.3834 76.2748 58.4414 74.2168 60.98 74.2168H61.0213C63.56 74.2168 65.618 76.2748 65.618 78.8134C65.618 81.3521 63.56 83.41 61.0213 83.41H60.98C58.4414 83.41 56.3834 81.3521 56.3834 78.8134Z" fill="#F5F5F5"/>
</svg>
