<svg width="30" height="31" viewBox="0 0 30 31" fill="none" xmlns="http://www.w3.org/2000/svg">
<path d="M26.9469 26.9395L17.219 12.6686L16.1193 11.0545L9.16063 0.846002L8.58411 0H0.0335083L2.11892 3.06022L11.3712 16.6352L12.4709 18.2475L19.9049 29.1547L20.4817 30H29.0323L26.9469 26.9398V26.9395ZM21.4979 28.0466L13.7745 16.7152L12.6748 15.1022L3.71261 1.95311H7.56768L14.8154 12.5869L15.9152 14.1999L25.3529 28.0464H21.4979V28.0466Z" fill="white"/>
<path d="M12.6747 15.1019L13.7745 16.7149L12.4707 18.2473L2.46691 29.9997H0L11.3709 16.635L12.6747 15.1019Z" fill="white"/>
<path d="M28.0027 0L17.219 12.6686L15.9152 14.1999L14.8154 12.5869L16.1193 11.0545L23.424 2.4689L25.5358 0H28.0027Z" fill="white"/>
</svg>
